HIERARCHY
ROOT ui
{
	 OFFSET 0 0 0
	 CHANNELS 3 XPosition YPosition Z Position
	 EndSite
	 {
	 OFFSET 0 -1 0
	 }
}
ROOT li
{
	 OFFSET 0 0 0
	 CHANNELS 3 XPosition YPosition Z Position
	 EndSite
	 {
	 OFFSET 0 -1 0
	 }
}
ROOT ul
{
	 OFFSET 0 0 0
	 CHANNELS 3 XPosition YPosition Z Position
	 EndSite
	 {
	 OFFSET 0 -1 0
	 }
}
ROOT ll
{
	 OFFSET 0 0 0
	 CHANNELS 3 XPosition YPosition Z Position
	 EndSite
	 {
	 OFFSET 0 -1 0
	 }
}
ROOT tt
{
	 OFFSET 0 0 0
	 CHANNELS 3 XPosition YPosition Z Position
	 EndSite
	 {
	 OFFSET 0 -1 0
	 }
}
ROOT tb
{
	 OFFSET 0 0 0
	 CHANNELS 3 XPosition YPosition Z Position
	 EndSite
	 {
	 OFFSET 0 -1 0
	 }
}
ROOT td
{
	 OFFSET 0 0 0
	 CHANNELS 3 XPosition YPosition Z Position
	 EndSite
	 {
	 OFFSET 0 -1 0
	 }
}
ROOT v
{
	 OFFSET 0 0 0
	 CHANNELS 3 XPosition YPosition Z Position
	 EndSite
	 {
	 OFFSET 0 -1 0
	 }
}
ROOT bn
{
	 OFFSET 0 0 0
	 CHANNELS 3 XPosition YPosition Z Position
	 EndSite
	 {
	 OFFSET 0 -1 0
	 }
}
MOTION
Frames: 32
Frame Time: 0.002
-0.002961867094039917	-0.0010620859861373902	0		0.5002274475097657	-2.33990380859375	0		-1.020915283203125	0.31239422607421874	0		-0.50342431640625	-2.7617001953125	0		1.791768310546875	-0.2607611083984375	0		3.3783193359375	0.22535108947753907	0		4.6029833984375	0.4192119445800781	0		5.9224326171875	0.3017689208984375	0		-0.24723179626464845	5.89267333984375	0		
-0.0028671889305114744	-0.0010607470273971558	0		0.548309326171875	-2.349509033203125	0		-0.9481307983398437	0.28939013671875	0		-0.49712185668945313	-2.755801513671875	0		1.7810469970703124	-0.24753218078613282	0		3.398414794921875	0.22624794006347657	0		4.598966796875	0.4124823913574219	0		5.91690869140625	0.32319265747070314	0		-0.3665477294921875	5.883228515625	0		
-0.0027718451023101805	-0.0010679370164871215	0		0.49659185791015625	-2.34380810546875	0		-1.0230435180664061	0.29031790161132814	0		-0.4558270263671875	-2.751370849609375	0		1.7811546630859374	-0.24745030212402344	0		3.399328369140625	0.21339859008789064	0		4.59904150390625	0.4127049560546875	0		5.93403955078125	0.3127693481445312	0		-0.36674615478515626	5.883203125	0		
-0.002677961111068726	-0.0010824869871139526	0		0.5247931518554687	-2.34516162109375	0		-1.0280166015625	0.2863154296875	0		-0.5113233337402344	-2.730680419921875	0		1.7571722412109374	-0.2540576934814453	0		3.41451416015625	0.22136605834960937	0		4.59911328125	0.412931640625	0		5.93497998046875	0.3426687927246094	0		-0.36498699951171876	5.8811435546875	0		
0.0035033459663391113	0.005818410873413086	0		0.5031180114746093	-2.336868408203125	0		-1.0110208129882812	0.28001846313476564	0		-0.4768521728515625	-2.713171875	0		1.7962476806640626	-0.2564883728027344	0		3.4003212890625	0.2007160186767578	0		4.599181640625	0.4131628112792969	0		5.93504638671875	0.3431964721679687	0		-0.366204833984375	5.88211572265625	0		
-0.0025003960132598878	-0.0011285200119018554	0		0.5512047119140625	-2.34748486328125	0		-1.0191693725585937	0.26304031372070313	0		-0.514348876953125	-2.69273486328125	0		1.7573780517578126	-0.25390699768066405	0		3.421407470703125	0.20161318969726563	0		4.59924462890625	0.4134000549316406	0		5.9417314453125	0.381595703125	0		-0.23318063354492188	5.90234814453125	0		
-0.0024191129207611086	-0.0011580499410629272	0		0.49949444580078123	-2.3418125	0		-1.0182197875976562	0.25393807983398436	0		-0.449970947265625	-2.682619384765625	0		1.792394287109375	-0.26028167724609375	0		3.40324658203125	0.18402085876464844	0		4.60131396484375	0.414618896484375	0		5.94526416015625	0.36474923706054685	0		-0.36672329711914065	5.8820185546875	0		
-0.002344131946563721	-0.0011910179853439331	0		0.5236486206054688	-2.347121337890625	0		-1.0122251586914062	0.24876565551757812	0		-0.5105452575683593	-2.66789990234375	0		1.7924852294921876	-0.26020327758789064	0		3.41339892578125	0.19107049560546874	0		4.5993505859375	0.413897216796875	0		5.94671826171875	0.3600986328125	0		-0.36602618408203125	5.8809501953125	0		
-0.0022758569717407228	-0.0012266030311584473	0		0.5019590148925781	-2.339843017578125	0		-1.0713465576171874	0.2354181213378906	0		-0.49712783813476563	-2.654135009765625	0		1.796620849609375	-0.256174560546875	0		3.43308349609375	0.1620023956298828	0		4.60021337890625	0.40014645385742187	0		5.95598486328125	0.3500363464355469	0		-0.35023614501953126	5.8886865234375	0		
0.007911717891693116	0.00860857582092285	0		0.5082651672363281	-2.33292333984375	0		-1.060314453125	0.2341700439453125	0		-0.4816746215820312	-2.63739697265625	0		1.7997626953125	-0.2511300048828125	0		3.418401611328125	0.18338323974609375	0		4.61451318359375	0.42123764038085937	0		5.96821875	0.3623996276855469	0		-0.23242552185058593	5.89912890625	0		
8.781570196151734E-4	0.0016598210334777832	0		0.5023935241699219	-2.33985009765625	0		-0.9933946533203125	0.2242144775390625	0		-0.4563385314941406	-2.6297841796875	0		1.792721923828125	-0.25995465087890623	0		3.416052978515625	0.15260926818847656	0		4.616375	0.40849453735351565	0		5.95485205078125	0.39114349365234374	0		-0.3670203857421875	5.88076611328125	0		
-0.0021120400428771974	-0.001341616988182068	0		0.526542724609375	-2.345154052734375	0		-1.072507568359375	0.21309588623046874	0		-0.4958878173828125	-2.61235595703125	0		1.78973779296875	-0.2638285217285156	0		3.411177490234375	0.15987513732910155	0		4.6123056640625	0.4018343811035156	0		5.959076171875	0.3743824462890625	0		-0.38152838134765626	5.869876953125	0		
-0.0020731348991394043	-0.0013831089735031128	0		0.5267520751953125	-2.3451572265625	0		-1.026662353515625	0.1984042510986328	0		-0.49844692993164064	-2.595397216796875	0		1.78674609375	-0.26770199584960935	0		3.4369658203125	0.14075921630859375	0		4.60841552734375	0.4101776428222656	0		5.96275146484375	0.3905245056152344	0		-0.3668053588867187	5.8786201171875	0		
-0.002043586015701294	-0.0014273509979248046	0		0.500994140625	-2.34184033203125	0		-1.05970703125	0.1936935119628906	0		-0.5471226196289063	-2.58687158203125	0		1.8195078125	-0.2910210876464844	0		3.4271591796875	0.15509217834472655	0		4.6164013671875	0.4093753662109375	0		5.96346875	0.3877333374023437	0		-0.23394831848144532	5.8988994140625	0		
-0.0020237860679626464	-0.0014748059511184692	0		0.53121142578125	-2.3402197265625	0		-1.019815673828125	0.18407493591308594	0		-0.47875439453125	-2.57479833984375	0		1.8254749755859374	-0.2970056762695312	0		3.441895263671875	0.13311824035644532	0		4.61656298828125	0.42367245483398436	0		5.953384765625	0.36623681640625	0		-0.36763088989257814	5.87847412109375	0		
0.001022832989692688	0.0014374279975891114	0		0.5033989868164063	-2.339887939453125	0		-1.0709625244140626	0.1725730285644531	0		-0.47346600341796874	-2.567946533203125	0		1.8184097900390626	-0.30483319091796873	0		3.46597900390625	0.14003131103515626	0		4.622455078125	0.4168949890136719	0		5.97272802734375	0.38192120361328125	0		-0.3811953125	5.86755615234375	0		
-0.0020128369331359865	-0.0015797679424285889	0		0.5534846801757812	-2.34751220703125	0		-1.0370257568359376	0.1680260772705078	0		-0.4672019348144531	-2.562109130859375	0		1.83115234375	-0.32790853881835935	0		3.448751708984375	0.12244300842285157	0		4.632423828125	0.417062744140625	0		5.95861376953125	0.4124281005859375	0		-0.4166766357421875	5.86389990234375	0		
-0.002020689010620117	-0.001637102961540222	0		0.4928099060058594	-2.333792236328125	0		-1.077297119140625	0.14737841796875	0		-0.4938756103515625	-2.549874755859375	0		1.847106689453125	-0.33302508544921877	0		3.44381982421875	0.12969775390625	0		4.6323857421875	0.41734402465820314	0		5.9664443359375	0.4111253051757813	0		-0.36794729614257815	5.87721826171875	0		
-0.002036298036575317	-0.0016972780227661132	0		0.5038884582519532	-2.33994873046875	0		-1.0713839111328125	0.14216943359375	0		-0.520574462890625	-2.538646484375	0		1.8340435791015626	-0.3387960510253906	0		3.473528076171875	0.10752536773681641	0		4.6454111328125	0.4234591369628906	0		5.9763671875	0.4010938720703125	0		-0.3654203491210937	5.87409619140625	0		
0.008060373306274415	0.008120026588439942	0		0.50606640625	-2.336999755859375	0		-1.06548828125	0.1359605255126953	0		-0.5082637329101563	-2.5258896484375	0		1.8779464111328126	-0.3472547607421875	0		3.47276123046875	0.1297176208496094	0		4.666357421875	0.4234723815917969	0		5.9763505859375	0.40171664428710935	0		-0.3668435363769531	5.87502001953125	0		
-0.0020859990119934083	-0.0018241109848022461	0		0.5561016845703125	-2.34562255859375	0		-1.0827025146484375	0.12102568817138672	0		-0.5169854125976563	-2.5148828125	0		1.8737291259765625	-0.36514035034179687	0		3.4555	0.11109686279296875	0		4.66138427734375	0.43078973388671876	0		5.96430078125	0.4217022705078125	0		-0.3682655029296875	5.8759423828125	0		
-0.002118316888809204	-0.0018905260562896728	0		0.5022685852050781	-2.34201318359375	0		-1.0867901611328126	0.11693304443359374	0		-0.46794412231445315	-2.523562744140625	0		1.90748291015625	-0.38547903442382814	0		3.4834580078125	0.11093565368652344	0		4.68132080078125	0.4308053588867187	0		5.97265869140625	0.3857222900390625	0		-0.38281622314453123	5.86601708984375	0		
-0.002154831886291504	-0.001959264039993286	0		0.5523047485351562	-2.349634521484375	0		-1.08404638671875	0.09875691986083984	0		-0.4977139587402344	-2.515311279296875	0		1.9062962646484376	-0.4004057922363281	0		3.485260986328125	0.09808013916015625	0		4.6853369140625	0.43800601196289063	0		5.9736484375	0.4485615234375	0		-0.24902403259277345	5.88434716796875	0		
-0.002194612979888916	-0.0020302889347076415	0		0.5025075988769532	-2.3420849609375	0		-1.0821981201171875	0.089590576171875	0		-0.48949224853515627	-2.507509521484375	0		1.95106982421875	-0.4188731689453125	0		3.49440087890625	0.1141368408203125	0		4.7003369140625	0.4440738220214844	0		5.98338720703125	0.40387579345703123	0		-0.3675907897949219	5.87363818359375	0		
0.007879121780395508	0.007779956817626953	0		0.53061865234375	-2.34244970703125	0		-1.0822459716796875	0.08944625854492187	0		-0.519250244140625	-2.497266845703125	0		1.956985595703125	-0.4248862915039063	0		3.518071044921875	0.09001787567138672	0		4.714345703125	0.45114862060546873	0		5.97987451171875	0.421837158203125	0		-0.3680208435058594	5.87354150390625	0		
-0.0022788000106811522	-0.0021778130531311035	0		0.5286923217773437	-2.345466552734375	0		-1.09542041015625	0.0784530258178711	0		-0.48214605712890624	-2.498802001953125	0		1.9897371826171875	-0.44521456909179685	0		3.5411943359375	0.10490327453613281	0		4.72019287109375	0.444308837890625	0		5.97984423828125	0.4223779296875	0		-0.41662313842773435	5.85799853515625	0		
-0.0023211400508880613	-0.0022541830539703368	0		0.5507133178710938	-2.352762451171875	0		-1.0935712890625	0.06928654479980469	0		-0.51497412109375	-2.493529296875	0		1.994480712890625	-0.4662235412597656	0		3.5320654296875	0.09815030670166015	0		4.73420263671875	0.45136376953125	0		5.9798134765625	0.4228905029296875	0		-0.38298486328125	5.861505859375	0		
-0.002362591028213501	-0.00233254599571228	0		0.5248466186523437	-2.34951123046875	0		-1.1026964111328126	0.06224706649780273	0		-0.479905029296875	-2.497037841796875	0		1.99921484375	-0.48823971557617185	0		3.55289111328125	0.08704133605957032	0		4.75312158203125	0.4503479919433594	0		5.97838232421875	0.4285984802246094	0		-0.40231414794921877	5.86662158203125	0		
-0.002401952028274536	-0.0024127020835876464	0		0.49896270751953126	-2.347266357421875	0		-1.0898653564453125	0.05095834732055664	0		-0.5327562255859375	-2.4925419921875	0		2.0169739990234374	-0.5084115600585938	0		3.571652099609375	0.06994467163085938	0		4.761044921875	0.4494423828125	0		5.9868876953125	0.42361474609375	0		-0.3656607971191406	5.86809814453125	0		
0.007674973011016845	0.007392136096954346	0		0.5311046142578125	-2.342683837890625	0		-1.0799156494140625	0.049706859588623045	0		-0.46756353759765623	-2.4843876953125	0		2.040884033203125	-0.515658203125	0		3.58386083984375	0.09191352844238282	0		4.79114208984375	0.46327035522460935	0		5.98337646484375	0.4414174499511719	0		-0.4000587158203125	5.86338330078125	0		
5.656700134277344E-4	3.900670111179352E-4	0		0.4991344604492188	-2.347378662109375	0		-1.0990150146484374	0.04378674697875977	0		-0.52852490234375	-2.488804443359375	0		2.06058447265625	-0.5418638916015625	0		3.574386962890625	0.053111091613769534	0		4.80600927734375	0.45625445556640626	0		5.98459619140625	0.4019590148925781	0		-0.36731069946289063	5.8689091796875	0		
5.414230227470398E-4	3.077380061149597E-4	0		0.5231591796875	-2.35270751953125	0		-1.1030859375	0.03969966125488281	0		-0.4584967041015625	-2.4946962890625	0		2.10536865234375	-0.561356689453125	0		3.601347412109375	0.051887950897216796	0		4.820884765625	0.44922232055664063	0		5.9833369140625	0.4421155700683594	0		-0.41578915405273437	5.85235009765625	0		
